<svg width="124" height="24" viewBox="0 0 124 24" fill="none" xmlns="http://www.w3.org/2000/svg">
<path d="M0.376953 19.916C0.357422 19.5254 0.347656 18.9883 0.347656 18.3047C0.367188 17.6211 0.386719 16.8691 0.40625 16.0488C0.445312 15.209 0.484375 14.3301 0.523438 13.4121C0.5625 12.4746 0.591797 11.5566 0.611328 10.6582C0.650391 9.75977 0.679688 8.91016 0.699219 8.10938C0.738281 7.28906 0.767578 6.57617 0.787109 5.9707C0.806641 5.54102 0.826172 5.12109 0.845703 4.71094C0.865234 4.35938 0.875 3.97852 0.875 3.56836C0.875 3.1582 0.855469 2.78711 0.816406 2.45508C0.972656 2.39648 1.09961 2.33789 1.19727 2.2793C1.29492 2.2207 1.39258 2.16211 1.49023 2.10352C1.58789 2.02539 1.69531 1.94727 1.8125 1.86914C1.94922 1.77148 2.13477 1.67383 2.36914 1.57617C2.50586 1.51758 2.65234 1.46875 2.80859 1.42969C2.94531 1.39062 3.0918 1.36133 3.24805 1.3418C3.42383 1.32227 3.60938 1.32227 3.80469 1.3418C4.13672 2.43555 4.46875 3.45117 4.80078 4.38867C5.15234 5.30664 5.50391 6.20508 5.85547 7.08398C6.20703 7.94336 6.57813 8.8125 6.96875 9.69141C7.35938 10.5508 7.75977 11.4785 8.16992 12.4746C8.59961 13.4902 8.99023 14.418 9.3418 15.2578C9.69336 16.0977 9.98633 16.8301 10.2207 17.4551C10.2598 16.752 10.2988 15.9707 10.3379 15.1113C10.377 14.2324 10.4062 13.334 10.4258 12.416C10.4453 11.498 10.4551 10.5996 10.4551 9.7207C10.4746 8.82227 10.4844 7.99219 10.4844 7.23047C10.5039 6.44922 10.5137 5.76562 10.5137 5.17969C10.5137 4.59375 10.5137 4.16406 10.5137 3.89062C10.5137 3.40234 10.6406 3.00195 10.8945 2.68945C11.168 2.35742 11.4707 2.09375 11.8027 1.89844C12.1543 1.70313 12.4961 1.56641 12.8281 1.48828C13.1797 1.41016 13.4336 1.37109 13.5898 1.37109C13.707 1.37109 13.8047 1.38086 13.8828 1.40039C13.9609 1.41992 14.0293 1.43945 14.0879 1.45898C14.166 1.47852 14.2246 1.50781 14.2637 1.54688C13.9316 1.99609 13.6875 2.47461 13.5312 2.98242C13.375 3.49023 13.2578 3.99805 13.1797 4.50586C13.1211 5.01367 13.0918 5.51172 13.0918 6C13.0918 6.48828 13.0918 6.9375 13.0918 7.34766C13.0723 8.32422 13.043 9.52539 13.0039 10.9512C12.9648 12.1816 12.9355 13.7148 12.916 15.5508C12.8965 17.3867 12.8867 19.584 12.8867 22.1426C12.4766 22.4746 12.0957 22.7578 11.7441 22.9922C11.3926 23.2266 10.9434 23.3047 10.3965 23.2266C10.1621 23.207 9.9668 23.1094 9.81055 22.9336C9.67383 22.7578 9.52734 22.5039 9.37109 22.1719C9.23438 21.8594 9.08789 21.4688 8.93164 21C8.77539 20.5117 8.57031 19.9453 8.31641 19.3008C7.86719 18.168 7.4082 17.0254 6.93945 15.873C6.4707 14.7207 6.02148 13.627 5.5918 12.5918C5.16211 11.5566 4.76172 10.6191 4.39062 9.7793C4.03906 8.91992 3.74609 8.22656 3.51172 7.69922C3.16016 10.375 2.99414 12.6797 3.01367 14.6133C3.05273 16.5469 3.12109 17.9629 3.21875 18.8613C3.27734 19.252 3.3457 19.6523 3.42383 20.0625C3.50195 20.4141 3.59961 20.8047 3.7168 21.2344C3.83398 21.6836 3.99023 22.1328 4.18555 22.582C3.85352 22.9141 3.52148 23.1387 3.18945 23.2559C2.87695 23.373 2.59375 23.4512 2.33984 23.4902C2.04688 23.5293 1.76367 23.5195 1.49023 23.4609C1.35352 23.4219 1.2168 23.2852 1.08008 23.0508C0.962891 22.8359 0.855469 22.5625 0.757812 22.2305C0.660156 21.8984 0.572266 21.5273 0.494141 21.1172C0.435547 20.7266 0.396484 20.3262 0.376953 19.916ZM16.1387 4.79883C16.0215 4.68164 15.9336 4.55469 15.875 4.41797C15.8164 4.26172 15.7676 4.10547 15.7285 3.94922C15.6895 3.77344 15.6602 3.59766 15.6406 3.42188C15.6211 3.26562 15.6211 3.10938 15.6406 2.95312C15.6406 2.66016 15.6992 2.43555 15.8164 2.2793C16.0312 2.24023 16.2656 2.20117 16.5195 2.16211C16.7734 2.10352 17.0176 2.05469 17.252 2.01562C17.5254 1.97656 17.8086 1.9375 18.1016 1.89844C18.2578 1.74219 18.4629 1.57617 18.7168 1.40039C18.9902 1.20508 19.293 1.0293 19.625 0.873047C19.8789 0.755859 20.0547 0.755859 20.1523 0.873047C20.25 0.990234 20.3184 1.23438 20.3574 1.60547C20.8457 1.56641 21.3535 1.52734 21.8809 1.48828C22.4082 1.44922 22.9551 1.42969 23.5215 1.42969C24.2832 1.41016 24.9961 1.39062 25.6602 1.37109C26.2266 1.35156 26.793 1.35156 27.3594 1.37109C27.9453 1.37109 28.3945 1.38086 28.707 1.40039C28.8633 1.41992 28.9805 1.53711 29.0586 1.75195C29.1562 1.94727 29.1855 2.21094 29.1465 2.54297C29.127 2.85547 29.0293 3.19727 28.8535 3.56836C28.6777 3.93945 28.4141 4.30078 28.0625 4.65234C27.5938 4.55469 27.0957 4.47656 26.5684 4.41797C26.0605 4.35938 25.5918 4.31055 25.1621 4.27148C24.6543 4.23242 24.166 4.22266 23.6973 4.24219C23.1309 4.24219 22.5645 4.26172 21.998 4.30078C21.4316 4.32031 20.8945 4.34961 20.3867 4.38867C20.3672 5.26758 20.3477 6.29297 20.3281 7.46484C20.3281 8.61719 20.3184 9.89648 20.2988 11.3027C20.5723 11.2637 20.8359 11.2441 21.0898 11.2441C21.3438 11.2246 21.6074 11.2051 21.8809 11.1855C22.584 11.1465 23.2676 11.1074 23.9316 11.0684C24.5957 11.0293 25.1719 11.0488 25.6602 11.127C26.168 11.1855 26.5488 11.332 26.8027 11.5664C27.0566 11.8008 27.1152 12.1719 26.9785 12.6797L26.5684 14.0859C26.5293 13.9883 26.4219 13.9102 26.2461 13.8516C26.0898 13.7734 25.9043 13.7148 25.6895 13.6758C25.4551 13.6172 25.1914 13.5684 24.8984 13.5293C24.2148 13.4512 23.4629 13.4414 22.6426 13.5C21.8223 13.5586 21.0312 13.6465 20.2695 13.7637C20.2695 14.7402 20.2793 15.668 20.2988 16.5469C20.3379 17.4062 20.377 18.1875 20.416 18.8906C20.4746 19.5938 20.5234 20.1992 20.5625 20.707C20.6016 21.2148 20.6309 21.5957 20.6504 21.8496C20.6699 22.0254 20.6504 22.1621 20.5918 22.2598C20.4941 22.377 20.377 22.5137 20.2402 22.6699C20.1035 22.8262 19.9277 22.9824 19.7129 23.1387C19.498 23.2949 19.2344 23.4219 18.9219 23.5195C18.6289 23.6367 18.2871 23.7051 17.8965 23.7246C17.7207 23.7246 17.6328 23.6367 17.6328 23.4609V14.3789C17.3008 14.3594 16.998 14.1055 16.7246 13.6172C16.4512 13.1289 16.3242 12.582 16.3438 11.9766C16.4805 11.9375 16.6172 11.9082 16.7539 11.8887C16.9102 11.8691 17.0566 11.8398 17.1934 11.8008C17.3496 11.7617 17.4961 11.7324 17.6328 11.7129C17.6328 10.3066 17.6426 8.99805 17.6621 7.78711C17.6816 6.55664 17.7109 5.50195 17.75 4.62305C17.5742 4.64258 17.3887 4.66211 17.1934 4.68164C17.0371 4.70117 16.8613 4.7207 16.666 4.74023C16.4707 4.75977 16.2949 4.7793 16.1387 4.79883ZM27.5352 4.91602C27.4375 4.79883 27.3594 4.66211 27.3008 4.50586C27.2422 4.34961 27.1934 4.19336 27.1543 4.03711C27.1152 3.86133 27.0859 3.68555 27.0664 3.50977V3.01172C27.0664 2.875 27.0762 2.74805 27.0957 2.63086C27.1152 2.49414 27.1641 2.38672 27.2422 2.30859C27.8477 2.15234 28.502 2.03516 29.2051 1.95703C29.9082 1.85937 30.5723 1.77148 31.1973 1.69336C31.9199 1.61523 32.6328 1.54688 33.3359 1.48828C33.5312 1.35156 33.707 1.25391 33.8633 1.19531C34.0195 1.13672 34.1465 1.13672 34.2441 1.19531C34.2832 1.19531 34.3223 1.27344 34.3613 1.42969H34.4785C35.1816 1.41016 35.8555 1.39062 36.5 1.37109C37.0469 1.35156 37.584 1.35156 38.1113 1.37109C38.6582 1.37109 39.0781 1.38086 39.3711 1.40039C39.5273 1.41992 39.6445 1.53711 39.7227 1.75195C39.8008 1.9668 39.8203 2.24023 39.7812 2.57227C39.7617 2.9043 39.6738 3.26562 39.5176 3.65625C39.3613 4.04688 39.1074 4.41797 38.7559 4.76953C38.3066 4.65234 37.8379 4.57422 37.3496 4.53516C36.8613 4.47656 36.4219 4.42773 36.0312 4.38867C35.543 4.34961 35.084 4.33008 34.6543 4.33008H34.5078C34.5273 5.11133 34.5371 5.98047 34.5371 6.9375C34.5371 7.875 34.5273 8.83203 34.5078 9.80859C34.5078 10.7656 34.498 11.7129 34.4785 12.6504C34.459 13.5684 34.4395 14.3887 34.4199 15.1113C34.4199 16.2637 34.4199 17.2598 34.4199 18.0996C34.4199 18.9199 34.4492 19.623 34.5078 20.209C34.5664 20.7754 34.6543 21.2344 34.7715 21.5859C34.8887 21.9375 35.0547 22.2207 35.2695 22.4355C35.25 22.4551 35.1914 22.5137 35.0938 22.6113C35.0156 22.7285 34.8984 22.8457 34.7422 22.9629C34.6055 23.0801 34.4297 23.1875 34.2148 23.2852C34.0195 23.3828 33.7949 23.4219 33.541 23.4023C32.8965 23.3828 32.418 23.168 32.1055 22.7578C31.793 22.3477 31.5781 21.7715 31.4609 21.0293C31.3438 20.2871 31.2949 19.3887 31.3145 18.334C31.3535 17.2793 31.4121 16.0781 31.4902 14.7305C31.5488 13.8125 31.5977 12.8652 31.6367 11.8887C31.6953 10.9121 31.7441 9.97461 31.7832 9.07617C31.8418 8.1582 31.8906 7.30859 31.9297 6.52734C31.9688 5.72656 32.0078 5.0332 32.0469 4.44727C31.5586 4.4668 31.0605 4.50586 30.5527 4.56445C30.1035 4.60352 29.6152 4.65234 29.0879 4.71094C28.5605 4.76953 28.043 4.83789 27.5352 4.91602ZM62.0176 23.4902C61.4316 23.4707 61.0312 23.2852 60.8164 22.9336C60.6016 22.6016 60.4746 22.1328 60.4355 21.5273C60.3965 20.9219 60.416 20.209 60.4941 19.3887C60.5723 18.5488 60.6113 17.6406 60.6113 16.6641C60.6309 14.7305 60.6992 12.9727 60.8164 11.3906C60.9531 9.78906 60.9922 8.23633 60.9336 6.73242C60.9336 6.61523 60.9336 6.50781 60.9336 6.41016C60.9336 6.3125 60.9238 6.21484 60.9043 6.11719C60.8066 6.44922 60.6895 6.83008 60.5527 7.25977C60.4355 7.66992 60.2891 8.12891 60.1133 8.63672C59.7617 9.73047 59.4102 10.8535 59.0586 12.0059C58.7266 13.1582 58.3945 14.2812 58.0625 15.375C57.75 16.4492 57.4473 17.4551 57.1543 18.3926C56.8809 19.3105 56.6367 20.082 56.4219 20.707C56.207 21.332 55.9922 21.791 55.7773 22.084C55.582 22.3965 55.377 22.6113 55.1621 22.7285C54.9668 22.8457 54.7617 22.8945 54.5469 22.875C54.3516 22.8555 54.1562 22.8359 53.9609 22.8164C53.8828 22.1523 53.7363 21.3711 53.5215 20.4727C53.3066 19.5742 53.082 18.7148 52.8477 17.8945C52.5742 16.9375 52.2715 15.9609 51.9395 14.9648C51.4902 13.2461 51.0215 11.6738 50.5332 10.248C50.0449 8.82227 49.6641 7.65039 49.3906 6.73242C49.2734 7.72852 49.1855 8.87109 49.127 10.1602C49.0684 11.4492 49.0293 12.7383 49.0098 14.0273C48.9902 15.3164 49 16.5371 49.0391 17.6895C49.0781 18.8223 49.1367 19.7402 49.2148 20.4434C49.2344 20.7363 49.2734 21.0293 49.332 21.3223C49.3711 21.5762 49.4199 21.8301 49.4785 22.084C49.5566 22.3574 49.6445 22.6016 49.7422 22.8164C49.6445 22.8945 49.5273 22.9629 49.3906 23.0215C49.2539 23.0801 49.1074 23.1289 48.9512 23.168C48.7754 23.2266 48.5898 23.2754 48.3945 23.3145C47.6328 23.4707 47.0762 23.4512 46.7246 23.2559C46.3926 23.0605 46.1875 22.6699 46.1094 22.084C46.0703 21.791 46.041 21.2441 46.0215 20.4434C46.002 19.6426 45.9922 18.7246 45.9922 17.6895C46.0117 16.6348 46.041 15.5312 46.0801 14.3789C46.1191 13.2266 46.1777 12.1523 46.2559 11.1562C46.334 10.3555 46.4121 9.48633 46.4902 8.54883C46.5684 7.72852 46.6465 6.78125 46.7246 5.70703C46.8027 4.63281 46.8906 3.4707 46.9883 2.2207C47.0469 2.10352 47.1445 2.00586 47.2812 1.92773C47.418 1.83008 47.5645 1.75195 47.7207 1.69336C47.8965 1.61523 48.0918 1.55664 48.3066 1.51758C48.6387 1.45898 48.9316 1.41016 49.1855 1.37109C49.4004 1.33203 49.5957 1.30273 49.7715 1.2832C49.9668 1.26367 50.0449 1.26367 50.0059 1.2832C50.2598 1.81055 50.4551 2.25 50.5918 2.60156C50.7285 2.93359 50.8652 3.33398 51.002 3.80273C51.1582 4.27148 51.3438 4.88672 51.5586 5.64844C51.793 6.41016 52.125 7.47461 52.5547 8.8418C53.1406 10.7363 53.6387 12.3867 54.0488 13.793C54.4785 15.1992 54.8008 16.2734 55.0156 17.0156C55.1523 16.7617 55.2891 16.4883 55.4258 16.1953C55.5625 15.8828 55.6992 15.5117 55.8359 15.082C55.9922 14.6523 56.1484 14.1543 56.3047 13.5879C56.4805 13.002 56.6758 12.3086 56.8906 11.5078C57.1641 10.6289 57.4473 9.68164 57.7402 8.66602C57.9746 7.80664 58.2285 6.83008 58.502 5.73633C58.7949 4.62305 59.0684 3.4707 59.3223 2.2793C59.9473 2.02539 60.4551 1.83984 60.8457 1.72266C61.2363 1.58594 61.5391 1.47852 61.7539 1.40039C62.0078 1.32227 62.1934 1.27344 62.3105 1.25391C62.4277 1.27344 62.5449 1.33203 62.6621 1.42969C62.7598 1.52734 62.877 1.66406 63.0137 1.83984C63.1504 2.01562 63.2969 2.2793 63.4531 2.63086C63.4531 2.9043 63.4531 3.34375 63.4531 3.94922C63.4531 4.55469 63.4531 5.25781 63.4531 6.05859C63.4531 6.83984 63.4434 7.68945 63.4238 8.60742C63.4043 9.52539 63.3848 10.4531 63.3652 11.3906C63.3652 12.3086 63.3555 13.207 63.3359 14.0859C63.3359 14.9648 63.3262 15.7461 63.3066 16.4297C63.2676 17.4648 63.2578 18.3438 63.2773 19.0664C63.3164 19.7891 63.375 20.3945 63.4531 20.8828C63.5508 21.3516 63.668 21.7324 63.8047 22.0254C63.9609 22.3184 64.1465 22.5527 64.3613 22.7285C64.3027 22.7676 64.1855 22.8262 64.0098 22.9043C63.8535 23.002 63.6582 23.0898 63.4238 23.168C63.1895 23.2656 62.9453 23.3438 62.6914 23.4023C62.4375 23.4609 62.2129 23.4902 62.0176 23.4902ZM72.8281 10.1016C72.8281 9.88672 72.9551 9.73047 73.209 9.63281C73.4824 9.51562 73.7656 9.45703 74.0586 9.45703C74.3711 9.45703 74.6543 9.51562 74.9082 9.63281C75.1621 9.73047 75.2793 9.86719 75.2598 10.043C75.2402 10.1797 75.2207 10.4531 75.2012 10.8633C75.1816 11.2539 75.1523 11.7227 75.1133 12.2695C75.0938 12.8164 75.0645 13.4023 75.0254 14.0273C74.9863 14.6523 74.9473 15.2676 74.9082 15.873C74.8887 16.459 74.8691 17.0059 74.8496 17.5137C74.8496 18.0215 74.8496 18.4121 74.8496 18.6855C74.8496 19.0371 74.8691 19.3594 74.9082 19.6523C74.9473 19.9062 74.9961 20.1602 75.0547 20.4141C75.1133 20.6484 75.2012 20.8145 75.3184 20.9121C75.1621 20.9707 74.9961 21.0098 74.8203 21.0293C74.6641 21.0488 74.5176 21.0684 74.3809 21.0879C74.2246 21.1074 74.0684 21.1172 73.9121 21.1172C73.5801 21.1172 73.2969 21.0488 73.0625 20.9121C72.8477 20.7754 72.7402 20.4922 72.7402 20.0625C72.7402 19.8477 72.75 19.5352 72.7695 19.125C72.8086 18.7148 72.8477 18.2754 72.8867 17.8066C72.75 18.2168 72.584 18.6367 72.3887 19.0664C72.1934 19.4961 71.9492 19.877 71.6562 20.209C71.3828 20.541 71.0703 20.8145 70.7188 21.0293C70.3672 21.2441 69.9668 21.3516 69.5176 21.3516C69.0098 21.3516 68.541 21.2441 68.1113 21.0293C67.7012 20.8145 67.3398 20.5117 67.0273 20.1211C66.7148 19.7109 66.4805 19.2129 66.3242 18.627C66.168 18.041 66.1094 17.3672 66.1484 16.6055C66.1484 16.0195 66.1582 15.3945 66.1777 14.7305C66.1973 14.1641 66.2266 13.5098 66.2656 12.7676C66.3047 12.0254 66.373 11.2539 66.4707 10.4531C66.4902 10.375 66.627 10.2773 66.8809 10.1602C67.1348 10.043 67.418 9.94531 67.7305 9.86719C68.043 9.78906 68.3457 9.75977 68.6387 9.7793C68.9316 9.79883 69.1465 9.91602 69.2832 10.1309C69.1855 10.4824 69.0879 10.9023 68.9902 11.3906C68.8926 11.8594 68.8047 12.3477 68.7266 12.8555C68.6484 13.3633 68.5898 13.8613 68.5508 14.3496C68.5117 14.8379 68.4922 15.2871 68.4922 15.6973C68.4922 16.0684 68.5117 16.4785 68.5508 16.9277C68.5898 17.3574 68.6582 17.7676 68.7559 18.1582C68.873 18.5293 69.0293 18.8418 69.2246 19.0957C69.4395 19.3496 69.7129 19.4766 70.0449 19.4766C70.416 19.4766 70.7383 19.3203 71.0117 19.0078C71.3047 18.6758 71.5488 18.2559 71.7441 17.748C71.9395 17.2402 72.1055 16.6641 72.2422 16.0195C72.3789 15.3555 72.4863 14.7012 72.5645 14.0566C72.6621 13.4121 72.7207 12.7969 72.7402 12.2109C72.7793 11.6055 72.8086 11.0977 72.8281 10.6875V10.1016ZM81.9395 15.4336C82.3691 15.5898 82.7793 15.7363 83.1699 15.873C83.5605 16.0098 83.9023 16.1758 84.1953 16.3711C84.4883 16.5664 84.7227 16.8008 84.8984 17.0742C85.0742 17.3281 85.1621 17.6504 85.1621 18.041C85.1621 18.5098 85.0547 18.9492 84.8398 19.3594C84.6445 19.7695 84.3516 20.1309 83.9609 20.4434C83.5703 20.7559 83.0918 21 82.5254 21.1758C81.9785 21.3711 81.3633 21.4688 80.6797 21.4688C79.918 21.4688 79.3027 21.3906 78.834 21.2344C78.3652 21.0977 78.0039 20.9316 77.75 20.7363C77.4961 20.541 77.3301 20.3457 77.252 20.1504C77.1738 19.9551 77.1348 19.7988 77.1348 19.6816C77.1348 19.4473 77.1836 19.1934 77.2812 18.9199C77.3789 18.627 77.5645 18.3145 77.8379 17.9824C77.9551 17.8457 78.082 17.7188 78.2188 17.6016C78.4922 17.3672 78.7656 17.2207 79.0391 17.1621C79 17.6113 79.0488 17.9824 79.1855 18.2754C79.3418 18.5488 79.5371 18.7637 79.7715 18.9199C80.0254 19.0762 80.2988 19.1836 80.5918 19.2422C80.9043 19.3008 81.1973 19.3301 81.4707 19.3301C81.7441 19.3301 82.0176 19.291 82.291 19.2129C82.584 19.1348 82.8477 19.0371 83.082 18.9199C83.3164 18.7832 83.502 18.6367 83.6387 18.4805C83.7949 18.3047 83.873 18.1191 83.873 17.9238C83.873 17.709 83.7852 17.5332 83.6094 17.3965C83.4336 17.2598 83.209 17.1523 82.9355 17.0742C82.6816 16.9766 82.3984 16.9082 82.0859 16.8691C81.793 16.8105 81.5098 16.752 81.2363 16.6934C80.9629 16.6348 80.5918 16.5566 80.123 16.459C79.6738 16.3418 79.2246 16.166 78.7754 15.9316C78.3457 15.6973 77.9648 15.3848 77.6328 14.9941C77.3203 14.6035 77.1641 14.0859 77.1641 13.4414C77.1641 12.6992 77.3496 12.0547 77.7207 11.5078C78.1113 10.9414 78.5801 10.4727 79.127 10.1016C79.6934 9.71094 80.2891 9.41797 80.9141 9.22266C81.5391 9.02734 82.0957 8.92969 82.584 8.92969C82.8379 8.92969 83.1113 8.96875 83.4043 9.04688C83.6973 9.10547 83.9707 9.22266 84.2246 9.39844C84.4785 9.55469 84.6836 9.76953 84.8398 10.043C85.0156 10.3164 85.1035 10.668 85.1035 11.0977C85.1035 11.5273 85.0645 11.8789 84.9863 12.1523C84.9277 12.4062 84.8301 12.6113 84.6934 12.7676C84.5762 12.9043 84.4297 12.9922 84.2539 13.0312C84.0781 13.0703 83.873 13.0898 83.6387 13.0898C83.4824 13.0898 83.3359 13.0703 83.1992 13.0312C83.082 12.9922 82.9551 12.9531 82.8184 12.9141C82.6816 12.875 82.5547 12.8066 82.4375 12.709C82.6328 12.4746 82.7793 12.25 82.877 12.0352C82.9941 11.8203 83.0527 11.5566 83.0527 11.2441C83.0527 10.9707 82.9746 10.7266 82.8184 10.5117C82.6816 10.2969 82.4473 10.1895 82.1152 10.1895C81.7637 10.1895 81.4219 10.2578 81.0898 10.3945C80.7773 10.5312 80.4941 10.7168 80.2402 10.9512C80.0059 11.1855 79.8105 11.459 79.6543 11.7715C79.5176 12.0645 79.4492 12.3867 79.4492 12.7383C79.4492 13.2656 79.6445 13.7637 80.0352 14.2324C80.4453 14.7012 81.0801 15.1016 81.9395 15.4336ZM90.7871 21.3223C89.4199 21.3223 88.3652 20.8633 87.623 19.9453C86.8809 19.0273 86.5098 17.8262 86.5098 16.3418C86.5098 15.3066 86.6562 14.3398 86.9492 13.4414C87.2617 12.5234 87.6719 11.7324 88.1797 11.0684C88.6875 10.4043 89.2734 9.88672 89.9375 9.51562C90.6211 9.125 91.334 8.92969 92.0762 8.92969C92.7988 8.92969 93.4141 9.19336 93.9219 9.7207C94.4297 10.2285 94.6836 10.9609 94.6836 11.918C94.6836 12.543 94.5469 13.168 94.2734 13.793C94 14.3984 93.6387 14.9453 93.1895 15.4336C92.7598 15.9023 92.2812 16.2832 91.7539 16.5762C91.2266 16.8691 90.7188 17.0156 90.2305 17.0156C89.918 17.0156 89.6543 16.9766 89.4395 16.8984C89.2246 16.8203 89.0293 16.7031 88.8535 16.5469C88.9121 17.6602 89.1562 18.4414 89.5859 18.8906C90.0156 19.3203 90.5723 19.5352 91.2559 19.5352C91.7246 19.5352 92.1348 19.4375 92.4863 19.2422C92.8574 19.0469 93.1699 18.8223 93.4238 18.5684C93.6777 18.3145 93.8828 18.0605 94.0391 17.8066C94.1953 17.5332 94.3027 17.3281 94.3613 17.1914C94.4199 17.0742 94.5176 17.0156 94.6543 17.0156C94.8105 17.0156 94.8887 17.1328 94.8887 17.3672C94.8887 17.582 94.8105 17.9141 94.6543 18.3633C94.5176 18.793 94.2832 19.2324 93.9512 19.6816C93.6191 20.1113 93.1895 20.4922 92.6621 20.8242C92.1543 21.1562 91.5293 21.3223 90.7871 21.3223ZM92.1348 10.1895C92.0176 10.1895 91.793 10.3164 91.4609 10.5703C91.1484 10.8047 90.8066 11.1562 90.4355 11.625C90.084 12.0938 89.752 12.6602 89.4395 13.3242C89.1465 13.9688 88.9609 14.7012 88.8828 15.5215C90.0547 15.248 90.9824 14.8184 91.666 14.2324C92.3496 13.6465 92.6914 12.7871 92.6914 11.6543C92.6914 11.0879 92.623 10.707 92.4863 10.5117C92.3496 10.2969 92.2324 10.1895 92.1348 10.1895ZM103.238 10.1016C103.238 9.88672 103.365 9.73047 103.619 9.63281C103.893 9.51562 104.176 9.45703 104.469 9.45703C104.781 9.45703 105.064 9.51562 105.318 9.63281C105.572 9.73047 105.689 9.86719 105.67 10.043C105.65 10.1797 105.631 10.4531 105.611 10.8633C105.592 11.2539 105.562 11.7227 105.523 12.2695C105.504 12.8164 105.475 13.4023 105.436 14.0273C105.396 14.6523 105.357 15.2676 105.318 15.873C105.299 16.459 105.279 17.0059 105.26 17.5137C105.26 18.0215 105.26 18.4121 105.26 18.6855C105.26 19.0371 105.279 19.3594 105.318 19.6523C105.357 19.9062 105.406 20.1602 105.465 20.4141C105.523 20.6484 105.611 20.8145 105.729 20.9121C105.572 20.9707 105.406 21.0098 105.23 21.0293C105.074 21.0488 104.928 21.0684 104.791 21.0879C104.635 21.1074 104.479 21.1172 104.322 21.1172C103.99 21.1172 103.707 21.0488 103.473 20.9121C103.258 20.7754 103.15 20.4922 103.15 20.0625C103.15 19.8477 103.16 19.5352 103.18 19.125C103.219 18.7148 103.258 18.2754 103.297 17.8066C103.16 18.2168 102.994 18.6367 102.799 19.0664C102.604 19.4961 102.359 19.877 102.066 20.209C101.793 20.541 101.48 20.8145 101.129 21.0293C100.777 21.2441 100.377 21.3516 99.9277 21.3516C99.4199 21.3516 98.9512 21.2441 98.5215 21.0293C98.1113 20.8145 97.75 20.5117 97.4375 20.1211C97.125 19.7109 96.8906 19.2129 96.7344 18.627C96.5781 18.041 96.5195 17.3672 96.5586 16.6055C96.5586 16.0195 96.5684 15.3945 96.5879 14.7305C96.6074 14.1641 96.6367 13.5098 96.6758 12.7676C96.7148 12.0254 96.7832 11.2539 96.8809 10.4531C96.9004 10.375 97.0371 10.2773 97.291 10.1602C97.5449 10.043 97.8281 9.94531 98.1406 9.86719C98.4531 9.78906 98.7559 9.75977 99.0488 9.7793C99.3418 9.79883 99.5566 9.91602 99.6934 10.1309C99.5957 10.4824 99.498 10.9023 99.4004 11.3906C99.3027 11.8594 99.2148 12.3477 99.1367 12.8555C99.0586 13.3633 99 13.8613 98.9609 14.3496C98.9219 14.8379 98.9023 15.2871 98.9023 15.6973C98.9023 16.0684 98.9219 16.4785 98.9609 16.9277C99 17.3574 99.0684 17.7676 99.166 18.1582C99.2832 18.5293 99.4395 18.8418 99.6348 19.0957C99.8496 19.3496 100.123 19.4766 100.455 19.4766C100.826 19.4766 101.148 19.3203 101.422 19.0078C101.715 18.6758 101.959 18.2559 102.154 17.748C102.35 17.2402 102.516 16.6641 102.652 16.0195C102.789 15.3555 102.896 14.7012 102.975 14.0566C103.072 13.4121 103.131 12.7969 103.15 12.2109C103.189 11.6055 103.219 11.0977 103.238 10.6875V10.1016ZM114.195 11.8594C114.039 11.8594 113.863 11.9473 113.668 12.123C113.492 12.2793 113.316 12.5039 113.141 12.7969C112.965 13.0703 112.789 13.3828 112.613 13.7344C112.438 14.0664 112.281 14.4082 112.145 14.7598C111.812 15.5801 111.49 16.4199 111.178 17.2793C110.865 18.1387 110.68 18.8809 110.621 19.5059C110.602 19.5645 110.592 19.623 110.592 19.6816C110.592 19.7207 110.592 19.7598 110.592 19.7988C110.572 19.8379 110.562 19.8965 110.562 19.9746C110.523 20.248 110.465 20.4727 110.387 20.6484C110.328 20.8047 110.191 20.9121 109.977 20.9707C109.742 21.0098 109.508 21.0391 109.273 21.0586C109.039 21.0781 108.814 21.0586 108.6 21C108.463 20.9609 108.355 20.8926 108.277 20.7949C108.219 20.6777 108.17 20.5508 108.131 20.4141C108.111 20.2578 108.092 20.1113 108.072 19.9746C108.072 19.8379 108.072 19.7207 108.072 19.623C108.072 19.5059 108.082 19.1445 108.102 18.5391C108.121 17.9141 108.141 17.2109 108.16 16.4297C108.18 15.6484 108.189 14.8867 108.189 14.1445C108.189 13.3828 108.18 12.8066 108.16 12.416C108.121 12.1426 108.082 11.8887 108.043 11.6543C108.004 11.4395 107.955 11.2246 107.896 11.0098C107.857 10.7949 107.789 10.6094 107.691 10.4531C107.906 10.3359 108.121 10.2383 108.336 10.1602C108.551 10.082 108.746 10.0234 108.922 9.98438C109.137 9.92578 109.332 9.88672 109.508 9.86719C109.977 9.82812 110.338 9.82812 110.592 9.86719C110.865 9.90625 111.002 10.1113 111.002 10.4824C111.002 10.8145 110.973 11.332 110.914 12.0352C110.875 12.7188 110.826 13.6758 110.768 14.9062C110.982 14.418 111.236 13.8711 111.529 13.2656C111.822 12.6406 112.135 12.0645 112.467 11.5371C112.799 10.9902 113.141 10.541 113.492 10.1895C113.844 9.81836 114.176 9.63281 114.488 9.63281C114.703 9.63281 114.947 9.68164 115.221 9.7793C115.514 9.85742 115.787 9.97461 116.041 10.1309C116.295 10.2676 116.52 10.4238 116.715 10.5996C116.93 10.7754 117.076 10.9512 117.154 11.127C117.232 11.3223 117.281 11.625 117.301 12.0352C117.32 12.4453 117.32 12.9043 117.301 13.4121C117.457 13.041 117.633 12.6797 117.828 12.3281C118.023 11.9766 118.219 11.6543 118.414 11.3613C118.629 11.0488 118.844 10.7852 119.059 10.5703C119.273 10.3555 119.469 10.209 119.645 10.1309C119.879 10.0332 120.162 10.0137 120.494 10.0723C120.826 10.1309 121.148 10.2383 121.461 10.3945C121.793 10.5312 122.076 10.6973 122.311 10.8926C122.564 11.0879 122.721 11.2734 122.779 11.4492C122.838 11.6445 122.887 11.9473 122.926 12.3574C122.965 12.7676 122.994 13.2168 123.014 13.7051C123.033 14.1934 123.043 14.7012 123.043 15.2285C123.043 15.7363 123.033 16.1855 123.014 16.5762C122.975 17.709 122.984 18.6074 123.043 19.2715C123.102 19.916 123.336 20.3945 123.746 20.707C123.473 20.8828 123.219 21.0098 122.984 21.0879C122.75 21.1855 122.545 21.2539 122.369 21.293C122.154 21.3516 121.969 21.3809 121.812 21.3809C121.598 21.3809 121.422 21.3223 121.285 21.2051C121.148 21.1074 121.041 20.9707 120.963 20.7949C120.885 20.6191 120.836 20.4238 120.816 20.209C120.797 19.9941 120.787 19.7793 120.787 19.5645C120.787 19.3691 120.797 19.0469 120.816 18.5977C120.855 18.1289 120.885 17.6016 120.904 17.0156C120.924 16.4297 120.924 15.834 120.904 15.2285C120.885 14.6035 120.836 14.0371 120.758 13.5293C120.699 13.002 120.592 12.5723 120.436 12.2402C120.279 11.9082 120.064 11.7422 119.791 11.7422C119.557 11.7422 119.332 11.8887 119.117 12.1816C118.902 12.4551 118.697 12.8262 118.502 13.2949C118.307 13.7441 118.131 14.252 117.975 14.8184C117.838 15.3652 117.711 15.9121 117.594 16.459C117.477 17.0059 117.389 17.5137 117.33 17.9824C117.271 18.4316 117.242 18.793 117.242 19.0664L117.213 18.8027C117.213 19.1738 117.213 19.5156 117.213 19.8281C117.232 20.1406 117.252 20.4531 117.271 20.7656C117.291 20.8828 117.184 20.9805 116.949 21.0586C116.715 21.1562 116.451 21.1953 116.158 21.1758C115.885 21.1758 115.631 21.1172 115.396 21C115.162 20.8828 115.045 20.6875 115.045 20.4141C115.045 20.2188 115.045 19.9258 115.045 19.5352C115.045 19.1445 115.035 18.7051 115.016 18.2168C115.016 17.7285 115.006 17.2207 114.986 16.6934C114.986 16.1465 114.977 15.6289 114.957 15.1406C114.957 14.7695 114.947 14.3887 114.928 13.998C114.928 13.6074 114.908 13.2559 114.869 12.9434C114.83 12.6113 114.752 12.3477 114.635 12.1523C114.537 11.957 114.391 11.8594 114.195 11.8594Z" fill="#1BB775"/>
</svg>
